<?xml version="1.0" standalone="no"?>
<!DOCTYPE svg PUBLIC "-//W3C//DTD SVG 20010904//EN"
 "http://www.w3.org/TR/2001/REC-SVG-20010904/DTD/svg10.dtd">
<svg version="1.0" xmlns="http://www.w3.org/2000/svg"
 width="1024.000000pt" height="1024.000000pt" viewBox="0 0 1024.000000 1024.000000"
 preserveAspectRatio="xMidYMid meet">

<g transform="translate(0.000000,1024.000000) scale(0.100000,-0.100000)"
fill="#000000" stroke="none">
<path d="M7695 9596 c-467 -122 -1282 -594 -1731 -1003 -66 -61 -136 -129
-156 -152 -31 -36 -51 -47 -131 -75 -53 -18 -130 -52 -172 -76 -91 -53 -256
-175 -346 -259 l-66 -60 -99 19 c-55 11 -166 23 -249 26 -126 6 -175 3 -305
-16 l-154 -22 -16 23 c-35 53 -172 209 -231 263 -131 119 -287 206 -367 206
-182 0 -319 -395 -284 -817 6 -76 18 -178 27 -227 l15 -88 -54 -112 c-60 -120
-92 -227 -104 -346 l-7 -75 -71 3 c-86 4 -140 -14 -150 -52 -15 -62 22 -90
134 -99 86 -7 92 -10 92 -46 0 -15 9 -63 20 -106 11 -43 19 -79 18 -80 -2 -1
-43 -15 -93 -31 -102 -33 -128 -59 -109 -111 16 -48 48 -55 140 -33 43 10 86
21 95 25 13 5 25 -10 54 -62 57 -104 128 -195 222 -283 47 -44 90 -80 94 -80
5 0 9 -7 9 -15 0 -21 -41 -35 -98 -35 -107 -1 -324 -41 -459 -86 -138 -46
-306 -149 -421 -258 -88 -84 -199 -228 -283 -369 -131 -220 -323 -649 -359
-805 -16 -70 -7 -115 31 -146 45 -38 89 -34 239 24 260 100 439 139 678 147
l162 6 58 -54 c31 -30 75 -68 97 -85 l39 -31 -55 -61 c-83 -91 -114 -160 -114
-247 l1 -71 -66 -27 c-163 -67 -365 -234 -467 -387 -112 -168 -183 -358 -183
-492 0 -44 4 -54 35 -85 35 -35 37 -36 100 -30 36 4 65 5 65 4 0 -1 -12 -60
-26 -132 -54 -274 -102 -687 -90 -769 15 -99 75 -122 231 -87 249 56 538 190
766 354 l76 55 13 -42 c23 -78 77 -109 154 -88 94 26 289 192 402 341 79 104
156 257 185 366 13 50 23 126 26 203 5 111 7 122 25 122 32 0 95 38 127 77 32
39 75 135 86 194 l6 35 107 -37 c59 -20 152 -47 207 -60 55 -12 101 -24 103
-25 7 -5 44 -280 57 -434 8 -91 15 -249 15 -352 0 -207 10 -254 57 -279 41
-22 105 -16 158 16 152 89 554 460 708 655 186 234 316 482 359 685 37 175 20
437 -43 661 l-29 105 27 33 c282 332 415 508 598 795 319 502 563 1022 766
1631 153 461 249 873 295 1270 33 290 33 797 0 1061 -62 489 -121 565 -391
495z m144 -209 c15 -62 51 -287 50 -317 0 -14 -13 47 -29 135 -40 230 -34 214
-79 204 -53 -12 -197 -63 -326 -116 -215 -89 -539 -263 -804 -433 -80 -51 -83
-54 -60 -64 212 -89 525 -253 714 -375 108 -69 355 -246 400 -286 39 -36 39
-36 -15 4 -378 277 -726 482 -1063 626 l-87 38 92 59 c237 154 505 303 727
403 134 62 418 165 452 165 11 0 20 -14 28 -43z m58 -394 c-3 -10 -5 -2 -5 17
0 19 2 27 5 18 2 -10 2 -26 0 -35z m-40 -65 c-3 -8 -6 -5 -6 6 -1 11 2 17 5
13 3 -3 4 -12 1 -19z m-10 -40 c-3 -8 -6 -5 -6 6 -1 11 2 17 5 13 3 -3 4 -12
1 -19z m-10 -65 c-3 -10 -5 -4 -5 12 0 17 2 24 5 18 2 -7 2 -21 0 -30z m-10
-65 c-3 -7 -5 -2 -5 12 0 14 2 19 5 13 2 -7 2 -19 0 -25z m-10 -60 c-3 -8 -6
-5 -6 6 -1 11 2 17 5 13 3 -3 4 -12 1 -19z m-1316 -83 c454 -193 888 -462
1255 -777 l101 -86 -38 -168 c-140 -606 -300 -1083 -523 -1563 -374 -803 -859
-1467 -1486 -2035 -216 -196 -411 -351 -645 -515 l-61 -42 -119 36 c-202 61
-540 209 -723 315 l-52 31 48 92 c186 357 286 713 224 796 -26 36 -63 47 -100
32 -76 -32 -347 -351 -492 -578 -28 -46 -55 -83 -59 -83 -12 0 -186 115 -257
171 -81 62 -241 196 -248 208 -13 21 97 346 209 617 68 165 291 621 323 662
l18 24 65 -32 c40 -20 74 -45 88 -66 34 -49 197 -203 272 -257 91 -65 224
-131 306 -152 37 -10 69 -19 71 -21 2 -1 -4 -39 -14 -84 -28 -138 -2 -244 80
-326 147 -147 397 -122 619 61 36 30 86 83 111 118 37 52 53 66 79 71 61 11
191 82 294 160 172 129 464 422 650 652 291 360 434 763 394 1111 -33 286
-162 519 -375 679 -106 80 -285 157 -412 179 l-41 6 -13 77 c-16 102 -53 241
-85 321 l-25 65 23 24 c53 58 383 331 400 332 5 0 67 -25 138 -55z m1306 13
c-3 -8 -6 -5 -6 6 -1 11 2 17 5 13 3 -3 4 -12 1 -19z m120 -60 c-3 -7 -5 -2
-5 12 0 14 2 19 5 13 2 -7 2 -19 0 -25z m-140 -40 c-3 -8 -6 -5 -6 6 -1 11 2
17 5 13 3 -3 4 -12 1 -19z m-10 -50 c-3 -7 -5 -2 -5 12 0 14 2 19 5 13 2 -7 2
-19 0 -25z m-10 -40 c-3 -8 -6 -5 -6 6 -1 11 2 17 5 13 3 -3 4 -12 1 -19z
m-10 -50 c-3 -7 -5 -2 -5 12 0 14 2 19 5 13 2 -7 2 -19 0 -25z m-10 -40 c-3
-8 -6 -5 -6 6 -1 11 2 17 5 13 3 -3 4 -12 1 -19z m-18 -67 c-7 -23 -14 -39
-16 -37 -3 2 1 23 8 45 7 23 14 39 16 37 3 -2 -1 -23 -8 -45z m-4000 -21 c100
-50 248 -191 400 -379 74 -91 87 -102 110 -98 14 2 80 15 146 27 180 33 397
31 613 -5 l163 -27 72 69 c79 76 197 172 289 235 85 57 249 141 258 131 13
-14 49 -135 70 -234 42 -203 47 -368 18 -661 l-11 -118 33 -82 c42 -106 70
-242 70 -339 l0 -76 -127 -6 c-71 -3 -145 -10 -166 -17 -66 -20 -86 -84 -34
-111 11 -7 83 -14 159 -17 104 -4 138 -8 138 -18 0 -18 -48 -151 -71 -196
l-19 -37 -56 25 c-106 47 -246 68 -272 42 -19 -19 -14 -56 11 -72 12 -8 53
-27 90 -41 38 -14 87 -35 108 -46 l40 -20 -20 -28 c-40 -55 -201 -200 -275
-246 -51 -31 -78 -55 -82 -71 -21 -85 84 -93 227 -18 l68 36 28 -22 c44 -34
132 -138 185 -219 l48 -74 -42 -46 c-130 -144 -297 -259 -434 -296 -55 -16
-62 -21 -83 -61 -57 -106 -202 -229 -307 -260 -104 -30 -143 3 -89 76 28 38
33 88 10 96 -28 11 -76 -19 -117 -73 -22 -29 -44 -53 -49 -53 -18 0 -30 80
-20 133 33 178 136 309 267 338 46 10 67 10 132 -4 124 -27 152 -21 152 33 -2
110 -270 171 -423 97 -32 -16 -84 -53 -116 -83 -65 -60 -75 -62 -166 -39 -112
29 -289 127 -349 194 l-19 21 34 -7 c19 -5 108 -8 199 -8 127 0 178 4 221 17
77 24 124 58 124 88 l0 25 -205 6 c-150 5 -232 12 -308 28 -358 75 -614 234
-777 484 -31 49 -55 89 -54 91 2 1 26 8 54 15 61 15 85 35 85 72 0 40 -28 52
-114 47 l-71 -3 -11 50 c-23 96 -24 94 62 92 65 -1 78 2 90 18 34 46 -13 94
-113 116 -30 7 -57 19 -60 26 -8 22 16 159 44 248 26 81 80 198 115 247 19 27
19 29 -2 155 -44 257 -44 476 0 659 22 92 64 194 80 194 6 0 28 -9 49 -20z
m3962 -83 c-10 -9 -11 -8 -5 6 3 10 9 15 12 12 3 -3 0 -11 -7 -18z m90 -104
c13 -16 12 -17 -3 -4 -10 7 -18 15 -18 17 0 8 8 3 21 -13z m116 -45 c-3 -7 -5
-2 -5 12 0 14 2 19 5 13 2 -7 2 -19 0 -25z m-62 2 c10 -11 16 -20 13 -20 -3 0
-13 9 -23 20 -10 11 -16 20 -13 20 3 0 13 -9 23 -20z m-1650 -404 c181 -58
335 -195 429 -382 54 -109 77 -202 83 -340 17 -374 -145 -715 -533 -1123 -89
-93 -99 -101 -106 -81 -15 40 -72 115 -151 197 -86 90 -85 83 -24 154 l38 44
108 -58 c122 -64 169 -73 195 -35 23 32 20 71 -6 95 -13 11 -66 45 -118 74
-52 29 -96 54 -98 55 -2 1 12 33 31 71 19 37 47 107 62 154 l26 86 42 -8 c23
-4 70 -8 104 -9 53 0 64 3 77 22 22 31 20 74 -5 97 -18 17 -89 34 -179 45 -12
1 -16 25 -21 121 -7 132 -36 265 -78 360 -25 57 -26 63 -14 120 7 33 18 129
25 213 8 111 15 152 24 152 7 0 47 -11 89 -24z m-2667 -2160 c-81 -158 -138
-286 -219 -486 -32 -80 -58 -139 -58 -132 -1 18 119 320 172 432 71 152 122
253 141 282 l18 27 -54 -5 c-203 -20 -386 -84 -523 -182 -54 -39 -195 -171
-195 -182 0 -4 -15 -23 -32 -42 -94 -100 -297 -482 -407 -764 l-20 -52 113 38
c62 21 128 40 147 44 19 3 -36 -18 -121 -48 -85 -30 -156 -53 -157 -52 -2 2
20 59 47 127 104 252 267 559 373 699 64 84 185 202 255 249 157 106 367 174
548 180 l42 1 -70 -134z m-298 -626 c0 -5 -5 -10 -11 -10 -5 0 -7 5 -4 10 3 6
8 10 11 10 2 0 4 -4 4 -10z m-20 -24 c0 -2 -8 -10 -17 -17 -16 -13 -17 -12 -4
4 13 16 21 21 21 13z m-45 -36 c-3 -5 -20 -19 -38 -30 l-32 -22 35 31 c35 32
46 38 35 21z m52 -62 c-3 -8 -6 -5 -6 6 -1 11 2 17 5 13 3 -3 4 -12 1 -19z
m-127 8 c0 -3 -15 -14 -32 -26 l-33 -22 30 26 c31 27 35 29 35 22z m-160 -111
c0 -2 -10 -9 -22 -15 -22 -11 -22 -10 -4 4 21 17 26 19 26 11z m-50 -30 c0 -2
-18 -14 -40 -25 -22 -11 -40 -18 -40 -15 0 2 17 13 38 24 42 23 42 23 42 16z
m272 -77 c-6 -6 -7 0 -4 19 5 21 7 23 10 9 2 -10 0 -22 -6 -28z m-402 8 c0 -2
-7 -7 -16 -10 -8 -3 -12 -2 -9 4 6 10 25 14 25 6z m337 -12 c-3 -3 -12 -4 -19
-1 -8 3 -5 6 6 6 11 1 17 -2 13 -5z m-387 -14 c-8 -5 -19 -10 -25 -10 -5 0 -3
5 5 10 8 5 20 10 25 10 6 0 3 -5 -5 -10z m87 -16 c-3 -3 -12 -4 -19 -1 -8 3
-5 6 6 6 11 1 17 -2 13 -5z m-54 -11 c-7 -2 -19 -2 -25 0 -7 3 -2 5 12 5 14 0
19 -2 13 -5z m-46 -9 c-3 -3 -12 -4 -19 -1 -8 3 -5 6 6 6 11 1 17 -2 13 -5z
m1582 -116 c-88 -223 -206 -466 -301 -618 -86 -138 -186 -272 -198 -265 -5 3
-8 0 -5 -7 2 -7 -10 -29 -27 -48 -17 -19 -28 -28 -25 -20 51 141 157 368 230
495 99 173 327 515 342 515 3 0 -5 -24 -16 -52z m2026 -357 c30 -167 16 -370
-35 -520 -102 -304 -423 -698 -812 -998 l-58 -44 0 138 c0 76 -2 176 -5 223
-4 82 -4 83 5 20 4 -36 12 -129 16 -207 l7 -142 25 20 c41 32 119 99 212 181
80 70 287 286 283 293 -1 2 14 20 33 40 87 92 215 304 274 455 69 176 77 429
20 639 l-11 44 -44 -43 c-24 -24 -42 -47 -39 -52 3 -5 2 -7 -3 -6 -13 4 -193
-164 -187 -174 3 -5 2 -7 -3 -6 -5 2 -64 -44 -132 -102 -68 -57 -139 -115
-160 -128 l-36 -23 26 23 c14 13 84 73 155 133 71 61 197 176 279 257 l150
147 13 -42 c7 -23 19 -80 27 -126z m-38 37 c-3 -8 -6 -5 -6 6 -1 11 2 17 5 13
3 -3 4 -12 1 -19z m-2764 -469 l84 -62 -29 -85 c-57 -173 -62 -287 -13 -329
57 -50 122 -17 267 136 l92 97 116 -60 c63 -33 146 -72 185 -87 83 -33 86 -38
86 -184 0 -69 -6 -124 -20 -178 -42 -162 -169 -356 -312 -476 l-74 -62 -6 75
c-5 60 -12 83 -32 110 -48 62 -75 55 -195 -52 -243 -218 -541 -381 -816 -446
l-28 -7 6 68 c16 157 60 433 103 643 25 124 48 237 50 252 4 21 -2 33 -23 53
-26 24 -34 26 -78 20 -27 -3 -65 -13 -84 -21 -19 -8 -37 -13 -39 -10 -7 7 56
168 91 229 76 136 220 277 359 352 65 36 186 83 214 84 7 1 50 -27 96 -60z
m2182 6 c-9 -20 -18 -35 -21 -33 -2 3 3 22 11 43 9 20 18 35 21 33 2 -3 -3
-22 -11 -43z m-45 21 c0 -2 -8 -10 -17 -17 -16 -13 -17 -12 -4 4 13 16 21 21
21 13z m1 -113 c-11 -21 -20 -35 -21 -31 0 12 33 78 38 74 2 -2 -6 -21 -17
-43z m-35 -80 c-8 -15 -15 -25 -16 -21 0 12 23 58 27 54 3 -2 -2 -17 -11 -33z
m-25 -70 c-12 -20 -14 -14 -5 12 4 9 9 14 11 11 3 -2 0 -13 -6 -23z m-30 -84
c-5 -13 -10 -19 -10 -12 -1 15 10 45 15 40 3 -2 0 -15 -5 -28z m-174 -236 c-3
-10 -5 -4 -5 12 0 17 2 24 5 18 2 -7 2 -21 0 -30z m10 -100 c-3 -10 -5 -4 -5
12 0 17 2 24 5 18 2 -7 2 -21 0 -30z m60 15 c-3 -8 -6 -5 -6 6 -1 11 2 17 5
13 3 -3 4 -12 1 -19z m-10 -50 c-3 -8 -6 -5 -6 6 -1 11 2 17 5 13 3 -3 4 -12
1 -19z m-6 -45 c-12 -20 -14 -14 -5 12 4 9 9 14 11 11 3 -2 0 -13 -6 -23z"/>
<path d="M3734 8012 c-34 -21 -53 -228 -35 -366 13 -98 24 -126 47 -126 8 0
43 26 77 58 34 32 85 73 112 91 28 19 51 35 53 36 7 5 -34 85 -71 139 -44 65
-147 176 -162 176 -6 0 -15 -4 -21 -8z"/>
<path d="M5624 7947 c-65 -38 -244 -223 -244 -252 0 -6 21 -27 48 -46 26 -18
82 -66 125 -106 43 -40 86 -73 96 -73 26 0 41 41 53 155 9 75 9 128 1 204 -14
127 -28 148 -79 118z"/>
<path d="M3931 7088 c-95 -51 -122 -201 -51 -282 60 -68 134 -72 194 -11 97
97 50 289 -74 301 -26 3 -55 -1 -69 -8z"/>
<path d="M5080 7048 c-54 -37 -73 -71 -78 -137 -8 -108 55 -191 144 -191 114
0 181 143 122 260 -43 84 -122 112 -188 68z"/>
<path d="M4380 6754 c-65 -27 -80 -38 -90 -69 -18 -56 1 -103 69 -168 54 -52
59 -60 51 -86 -19 -69 -54 -101 -108 -101 -41 0 -66 12 -119 61 -94 86 -155
13 -80 -97 47 -70 117 -106 204 -106 38 0 87 7 111 15 41 14 46 14 90 -6 69
-32 226 -32 297 1 106 49 165 142 117 185 -27 25 -42 21 -108 -23 -125 -83
-252 -54 -271 64 -6 36 -3 40 44 81 109 95 110 188 4 232 -37 16 -185 27 -211
17z"/>
<path d="M5625 5720 c27 -27 51 -50 54 -50 3 0 -17 23 -44 50 -27 28 -51 50
-54 50 -3 0 17 -22 44 -50z"/>
<path d="M4196 4261 c-10 -11 -15 -25 -10 -32 4 -7 3 -10 -4 -6 -6 4 -42 -41
-85 -105 -85 -130 -119 -192 -109 -203 4 -3 1 -5 -7 -3 -15 4 -153 -250 -146
-269 2 -7 0 -13 -4 -13 -10 0 -75 -150 -68 -157 9 -9 178 237 242 352 78 141
224 455 211 455 -2 0 -11 -9 -20 -19z m-32 -86 c-4 -8 -10 -15 -15 -15 -4 0
-6 7 -3 15 4 8 10 15 15 15 4 0 6 -7 3 -15z m-320 -571 c3 -8 2 -12 -4 -9 -6
3 -10 10 -10 16 0 14 7 11 14 -7z"/>
<path d="M3309 3413 c-13 -16 -12 -17 4 -4 16 13 21 21 13 21 -2 0 -10 -8 -17
-17z"/>
<path d="M3215 3279 c-4 -6 -5 -12 -2 -15 2 -3 7 2 10 11 7 17 1 20 -8 4z"/>
<path d="M4081 3144 c0 -11 3 -14 6 -6 3 7 2 16 -1 19 -3 4 -6 -2 -5 -13z"/>
<path d="M3161 3104 c0 -11 3 -14 6 -6 3 7 2 16 -1 19 -3 4 -6 -2 -5 -13z"/>
<path d="M4046 3045 c-9 -26 -7 -32 5 -12 6 10 9 21 6 23 -2 3 -7 -2 -11 -11z"/>
<path d="M4010 2970 c-6 -11 -8 -20 -6 -20 3 0 10 9 16 20 6 11 8 20 6 20 -3
0 -10 -9 -16 -20z"/>
<path d="M3162 2920 c0 -19 2 -27 5 -17 2 9 2 25 0 35 -3 9 -5 1 -5 -18z"/>
<path d="M3934 2868 l-19 -23 23 19 c12 11 22 21 22 23 0 8 -8 2 -26 -19z"/>
<path d="M3164 2770 c0 -63 1 -89 3 -57 2 31 2 83 0 115 -2 31 -3 5 -3 -58z"/>
<path d="M3865 2788 l-50 -53 53 50 c28 27 52 51 52 52 0 8 -9 -1 -55 -49z"/>
<path d="M3784 2718 l-19 -23 23 19 c21 18 27 26 19 26 -2 0 -12 -10 -23 -22z"/>
<path d="M3734 2678 l-19 -23 23 19 c12 11 22 21 22 23 0 8 -8 2 -26 -19z"/>
<path d="M3151 2584 c0 -11 3 -14 6 -6 3 7 2 16 -1 19 -3 4 -6 -2 -5 -13z"/>
<path d="M3142 2530 c0 -14 2 -19 5 -12 2 6 2 18 0 25 -3 6 -5 1 -5 -13z"/>
<path d="M3494 2524 c-18 -14 -18 -15 4 -4 12 6 22 13 22 15 0 8 -5 6 -26 -11z"/>
<path d="M3418 2484 c-38 -20 -36 -28 2 -9 17 9 30 18 30 20 0 7 -1 6 -32 -11z"/>
<path d="M3126 2464 c-4 -14 -5 -28 -3 -31 3 -2 8 8 11 23 4 14 5 28 3 31 -3
2 -8 -8 -11 -23z"/>
<path d="M3300 2425 c-25 -13 -40 -24 -35 -24 6 0 30 11 55 24 25 13 41 24 35
24 -5 0 -30 -11 -55 -24z"/>
<path d="M3111 2404 c0 -11 3 -14 6 -6 3 7 2 16 -1 19 -3 4 -6 -2 -5 -13z"/>
</g>
</svg>
